ISO-10303-21;
HEADER;
/* Generated by software containing ST-Developer
 * from STEP Tools, Inc. (www.steptools.com) 
 */

FILE_DESCRIPTION(
/* description */ (''),
/* implementation_level */ '2;1');

FILE_NAME(
/* name */ 'PGA84 v3.step',
/* time_stamp */ '2025-07-06T10:45:55+01:00',
/* author */ (''),
/* organization */ (''),
/* preprocessor_version */ 'ST-DEVELOPER v20.1',
/* originating_system */ 'Autodesk Translation Framework v14.10.0.0',
/* authorisation */ '');

FILE_SCHEMA (('AUTOMOTIVE_DESIGN { 1 0 10303 214 3 1 1 }','FEATURE_BASED_PROCESS_PLANNING'));
ENDSEC;

DATA;
#10=MECHANICAL_DESIGN_GEOMETRIC_PRESENTATION_REPRESENTATION('',(#26,#27,
#28),#754);
#11=SHAPE_REPRESENTATION_RELATIONSHIP('SRR','None',#761,#12);
#12=ADVANCED_BREP_SHAPE_REPRESENTATION('',(#13),#753);
#13=MANIFOLD_SOLID_BREP('Body1',#458);
#14=CYLINDRICAL_SURFACE('',#486,1.);
#15=CYLINDRICAL_SURFACE('',#492,1.);
#16=CYLINDRICAL_SURFACE('',#494,1.);
#17=CYLINDRICAL_SURFACE('',#495,1.);
#18=CIRCLE('',#480,1.);
#19=CIRCLE('',#481,1.);
#20=CIRCLE('',#482,1.);
#21=CIRCLE('',#484,1.);
#22=CIRCLE('',#487,1.);
#23=CIRCLE('',#489,1.);
#24=CIRCLE('',#490,1.);
#25=CIRCLE('',#491,1.);
#26=STYLED_ITEM('',(#771),#441);
#27=STYLED_ITEM('',(#771),#455);
#28=STYLED_ITEM('',(#770),#13);
#29=FACE_OUTER_BOUND('',#52,.T.);
#30=FACE_OUTER_BOUND('',#53,.T.);
#31=FACE_OUTER_BOUND('',#54,.T.);
#32=FACE_OUTER_BOUND('',#55,.T.);
#33=FACE_OUTER_BOUND('',#56,.T.);
#34=FACE_OUTER_BOUND('',#57,.T.);
#35=FACE_OUTER_BOUND('',#58,.T.);
#36=FACE_OUTER_BOUND('',#59,.T.);
#37=FACE_OUTER_BOUND('',#60,.T.);
#38=FACE_OUTER_BOUND('',#61,.T.);
#39=FACE_OUTER_BOUND('',#62,.T.);
#40=FACE_OUTER_BOUND('',#63,.T.);
#41=FACE_OUTER_BOUND('',#64,.T.);
#42=FACE_OUTER_BOUND('',#65,.T.);
#43=FACE_OUTER_BOUND('',#66,.T.);
#44=FACE_OUTER_BOUND('',#67,.T.);
#45=FACE_OUTER_BOUND('',#68,.T.);
#46=FACE_OUTER_BOUND('',#69,.T.);
#47=FACE_OUTER_BOUND('',#70,.T.);
#48=FACE_OUTER_BOUND('',#71,.T.);
#49=FACE_OUTER_BOUND('',#72,.T.);
#50=FACE_OUTER_BOUND('',#73,.T.);
#51=FACE_OUTER_BOUND('',#74,.T.);
#52=EDGE_LOOP('',(#290,#291,#292,#293));
#53=EDGE_LOOP('',(#294,#295,#296,#297));
#54=EDGE_LOOP('',(#298,#299,#300,#301));
#55=EDGE_LOOP('',(#302,#303,#304,#305));
#56=EDGE_LOOP('',(#306,#307,#308,#309));
#57=EDGE_LOOP('',(#310,#311,#312,#313));
#58=EDGE_LOOP('',(#314,#315,#316,#317,#318,#319,#320,#321,#322,#323));
#59=EDGE_LOOP('',(#324,#325,#326,#327,#328,#329,#330,#331,#332,#333,#334,
#335,#336,#337,#338));
#60=EDGE_LOOP('',(#339,#340,#341,#342,#343));
#61=EDGE_LOOP('',(#344,#345,#346,#347,#348,#349,#350,#351));
#62=EDGE_LOOP('',(#352,#353,#354,#355));
#63=EDGE_LOOP('',(#356,#357,#358,#359,#360,#361,#362,#363));
#64=EDGE_LOOP('',(#364,#365,#366,#367));
#65=EDGE_LOOP('',(#368,#369,#370,#371));
#66=EDGE_LOOP('',(#372,#373,#374,#375));
#67=EDGE_LOOP('',(#376,#377,#378,#379));
#68=EDGE_LOOP('',(#380,#381,#382,#383));
#69=EDGE_LOOP('',(#384,#385,#386,#387));
#70=EDGE_LOOP('',(#388,#389,#390,#391,#392,#393));
#71=EDGE_LOOP('',(#394,#395,#396,#397,#398,#399));
#72=EDGE_LOOP('',(#400,#401,#402,#403));
#73=EDGE_LOOP('',(#404,#405,#406,#407));
#74=EDGE_LOOP('',(#408,#409,#410,#411,#412,#413,#414,#415));
#75=LINE('',#626,#130);
#76=LINE('',#628,#131);
#77=LINE('',#630,#132);
#78=LINE('',#631,#133);
#79=LINE('',#635,#134);
#80=LINE('',#637,#135);
#81=LINE('',#639,#136);
#82=LINE('',#640,#137);
#83=LINE('',#644,#138);
#84=LINE('',#646,#139);
#85=LINE('',#648,#140);
#86=LINE('',#649,#141);
#87=LINE('',#652,#142);
#88=LINE('',#654,#143);
#89=LINE('',#655,#144);
#90=LINE('',#658,#145);
#91=LINE('',#660,#146);
#92=LINE('',#661,#147);
#93=LINE('',#664,#148);
#94=LINE('',#666,#149);
#95=LINE('',#667,#150);
#96=LINE('',#669,#151);
#97=LINE('',#670,#152);
#98=LINE('',#672,#153);
#99=LINE('',#673,#154);
#100=LINE('',#676,#155);
#101=LINE('',#678,#156);
#102=LINE('',#680,#157);
#103=LINE('',#681,#158);
#104=LINE('',#683,#159);
#105=LINE('',#687,#160);
#106=LINE('',#691,#161);
#107=LINE('',#694,#162);
#108=LINE('',#697,#163);
#109=LINE('',#700,#164);
#110=LINE('',#703,#165);
#111=LINE('',#705,#166);
#112=LINE('',#706,#167);
#113=LINE('',#709,#168);
#114=LINE('',#713,#169);
#115=LINE('',#717,#170);
#116=LINE('',#721,#171);
#117=LINE('',#724,#172);
#118=LINE('',#725,#173);
#119=LINE('',#727,#174);
#120=LINE('',#729,#175);
#121=LINE('',#731,#176);
#122=LINE('',#734,#177);
#123=LINE('',#736,#178);
#124=LINE('',#737,#179);
#125=LINE('',#740,#180);
#126=LINE('',#741,#181);
#127=LINE('',#744,#182);
#128=LINE('',#745,#183);
#129=LINE('',#747,#184);
#130=VECTOR('',#507,10.);
#131=VECTOR('',#508,10.);
#132=VECTOR('',#509,10.);
#133=VECTOR('',#510,10.);
#134=VECTOR('',#513,10.);
#135=VECTOR('',#514,10.);
#136=VECTOR('',#515,10.);
#137=VECTOR('',#516,10.);
#138=VECTOR('',#519,10.);
#139=VECTOR('',#520,10.);
#140=VECTOR('',#521,10.);
#141=VECTOR('',#522,10.);
#142=VECTOR('',#525,10.);
#143=VECTOR('',#526,10.);
#144=VECTOR('',#527,10.);
#145=VECTOR('',#530,10.);
#146=VECTOR('',#531,10.);
#147=VECTOR('',#532,10.);
#148=VECTOR('',#535,10.);
#149=VECTOR('',#536,10.);
#150=VECTOR('',#537,10.);
#151=VECTOR('',#540,10.);
#152=VECTOR('',#541,10.);
#153=VECTOR('',#542,10.);
#154=VECTOR('',#543,10.);
#155=VECTOR('',#546,10.);
#156=VECTOR('',#547,10.);
#157=VECTOR('',#548,10.);
#158=VECTOR('',#549,10.);
#159=VECTOR('',#550,10.);
#160=VECTOR('',#553,10.);
#161=VECTOR('',#556,10.);
#162=VECTOR('',#559,10.);
#163=VECTOR('',#562,10.);
#164=VECTOR('',#565,10.);
#165=VECTOR('',#568,10.);
#166=VECTOR('',#569,10.);
#167=VECTOR('',#570,10.);
#168=VECTOR('',#573,10.);
#169=VECTOR('',#578,10.);
#170=VECTOR('',#581,10.);
#171=VECTOR('',#584,10.);
#172=VECTOR('',#589,10.);
#173=VECTOR('',#590,10.);
#174=VECTOR('',#593,10.);
#175=VECTOR('',#596,10.);
#176=VECTOR('',#599,10.);
#177=VECTOR('',#602,10.);
#178=VECTOR('',#603,10.);
#179=VECTOR('',#604,10.);
#180=VECTOR('',#607,10.);
#181=VECTOR('',#608,10.);
#182=VECTOR('',#611,10.);
#183=VECTOR('',#612,10.);
#184=VECTOR('',#615,10.);
#185=VERTEX_POINT('',#624);
#186=VERTEX_POINT('',#625);
#187=VERTEX_POINT('',#627);
#188=VERTEX_POINT('',#629);
#189=VERTEX_POINT('',#633);
#190=VERTEX_POINT('',#634);
#191=VERTEX_POINT('',#636);
#192=VERTEX_POINT('',#638);
#193=VERTEX_POINT('',#642);
#194=VERTEX_POINT('',#643);
#195=VERTEX_POINT('',#645);
#196=VERTEX_POINT('',#647);
#197=VERTEX_POINT('',#651);
#198=VERTEX_POINT('',#653);
#199=VERTEX_POINT('',#657);
#200=VERTEX_POINT('',#659);
#201=VERTEX_POINT('',#663);
#202=VERTEX_POINT('',#665);
#203=VERTEX_POINT('',#671);
#204=VERTEX_POINT('',#675);
#205=VERTEX_POINT('',#677);
#206=VERTEX_POINT('',#679);
#207=VERTEX_POINT('',#682);
#208=VERTEX_POINT('',#684);
#209=VERTEX_POINT('',#686);
#210=VERTEX_POINT('',#688);
#211=VERTEX_POINT('',#690);
#212=VERTEX_POINT('',#692);
#213=VERTEX_POINT('',#696);
#214=VERTEX_POINT('',#698);
#215=VERTEX_POINT('',#702);
#216=VERTEX_POINT('',#704);
#217=VERTEX_POINT('',#708);
#218=VERTEX_POINT('',#712);
#219=VERTEX_POINT('',#714);
#220=VERTEX_POINT('',#716);
#221=VERTEX_POINT('',#718);
#222=VERTEX_POINT('',#720);
#223=VERTEX_POINT('',#733);
#224=VERTEX_POINT('',#735);
#225=VERTEX_POINT('',#739);
#226=VERTEX_POINT('',#743);
#227=EDGE_CURVE('',#185,#186,#75,.T.);
#228=EDGE_CURVE('',#187,#185,#76,.T.);
#229=EDGE_CURVE('',#187,#188,#77,.T.);
#230=EDGE_CURVE('',#186,#188,#78,.T.);
#231=EDGE_CURVE('',#189,#190,#79,.T.);
#232=EDGE_CURVE('',#189,#191,#80,.T.);
#233=EDGE_CURVE('',#191,#192,#81,.T.);
#234=EDGE_CURVE('',#190,#192,#82,.T.);
#235=EDGE_CURVE('',#193,#194,#83,.T.);
#236=EDGE_CURVE('',#193,#195,#84,.T.);
#237=EDGE_CURVE('',#195,#196,#85,.T.);
#238=EDGE_CURVE('',#194,#196,#86,.T.);
#239=EDGE_CURVE('',#197,#193,#87,.T.);
#240=EDGE_CURVE('',#198,#197,#88,.T.);
#241=EDGE_CURVE('',#198,#195,#89,.T.);
#242=EDGE_CURVE('',#192,#199,#90,.T.);
#243=EDGE_CURVE('',#200,#199,#91,.T.);
#244=EDGE_CURVE('',#190,#200,#92,.T.);
#245=EDGE_CURVE('',#201,#185,#93,.T.);
#246=EDGE_CURVE('',#202,#201,#94,.T.);
#247=EDGE_CURVE('',#202,#187,#95,.T.);
#248=EDGE_CURVE('',#196,#202,#96,.T.);
#249=EDGE_CURVE('',#199,#198,#97,.T.);
#250=EDGE_CURVE('',#203,#191,#98,.T.);
#251=EDGE_CURVE('',#188,#203,#99,.T.);
#252=EDGE_CURVE('',#186,#204,#100,.T.);
#253=EDGE_CURVE('',#204,#205,#101,.T.);
#254=EDGE_CURVE('',#205,#206,#102,.T.);
#255=EDGE_CURVE('',#206,#189,#103,.T.);
#256=EDGE_CURVE('',#200,#207,#104,.T.);
#257=EDGE_CURVE('',#208,#207,#18,.T.);
#258=EDGE_CURVE('',#208,#209,#105,.T.);
#259=EDGE_CURVE('',#210,#209,#19,.T.);
#260=EDGE_CURVE('',#210,#211,#106,.T.);
#261=EDGE_CURVE('',#212,#211,#20,.T.);
#262=EDGE_CURVE('',#212,#201,#107,.T.);
#263=EDGE_CURVE('',#194,#213,#108,.T.);
#264=EDGE_CURVE('',#214,#213,#21,.T.);
#265=EDGE_CURVE('',#214,#197,#109,.T.);
#266=EDGE_CURVE('',#215,#212,#110,.T.);
#267=EDGE_CURVE('',#215,#216,#111,.T.);
#268=EDGE_CURVE('',#213,#216,#112,.T.);
#269=EDGE_CURVE('',#211,#217,#113,.T.);
#270=EDGE_CURVE('',#217,#215,#22,.T.);
#271=EDGE_CURVE('',#218,#217,#114,.T.);
#272=EDGE_CURVE('',#219,#218,#23,.T.);
#273=EDGE_CURVE('',#220,#219,#115,.T.);
#274=EDGE_CURVE('',#221,#220,#24,.T.);
#275=EDGE_CURVE('',#222,#221,#116,.T.);
#276=EDGE_CURVE('',#216,#222,#25,.T.);
#277=EDGE_CURVE('',#209,#219,#117,.T.);
#278=EDGE_CURVE('',#218,#210,#118,.T.);
#279=EDGE_CURVE('',#220,#208,#119,.T.);
#280=EDGE_CURVE('',#207,#221,#120,.T.);
#281=EDGE_CURVE('',#222,#214,#121,.T.);
#282=EDGE_CURVE('',#204,#223,#122,.T.);
#283=EDGE_CURVE('',#224,#223,#123,.T.);
#284=EDGE_CURVE('',#205,#224,#124,.T.);
#285=EDGE_CURVE('',#225,#224,#125,.T.);
#286=EDGE_CURVE('',#206,#225,#126,.T.);
#287=EDGE_CURVE('',#226,#225,#127,.T.);
#288=EDGE_CURVE('',#226,#203,#128,.T.);
#289=EDGE_CURVE('',#223,#226,#129,.T.);
#290=ORIENTED_EDGE('',*,*,#227,.F.);
#291=ORIENTED_EDGE('',*,*,#228,.F.);
#292=ORIENTED_EDGE('',*,*,#229,.T.);
#293=ORIENTED_EDGE('',*,*,#230,.F.);
#294=ORIENTED_EDGE('',*,*,#231,.F.);
#295=ORIENTED_EDGE('',*,*,#232,.T.);
#296=ORIENTED_EDGE('',*,*,#233,.T.);
#297=ORIENTED_EDGE('',*,*,#234,.F.);
#298=ORIENTED_EDGE('',*,*,#235,.F.);
#299=ORIENTED_EDGE('',*,*,#236,.T.);
#300=ORIENTED_EDGE('',*,*,#237,.T.);
#301=ORIENTED_EDGE('',*,*,#238,.F.);
#302=ORIENTED_EDGE('',*,*,#239,.F.);
#303=ORIENTED_EDGE('',*,*,#240,.F.);
#304=ORIENTED_EDGE('',*,*,#241,.T.);
#305=ORIENTED_EDGE('',*,*,#236,.F.);
#306=ORIENTED_EDGE('',*,*,#234,.T.);
#307=ORIENTED_EDGE('',*,*,#242,.T.);
#308=ORIENTED_EDGE('',*,*,#243,.F.);
#309=ORIENTED_EDGE('',*,*,#244,.F.);
#310=ORIENTED_EDGE('',*,*,#228,.T.);
#311=ORIENTED_EDGE('',*,*,#245,.F.);
#312=ORIENTED_EDGE('',*,*,#246,.F.);
#313=ORIENTED_EDGE('',*,*,#247,.T.);
#314=ORIENTED_EDGE('',*,*,#248,.F.);
#315=ORIENTED_EDGE('',*,*,#237,.F.);
#316=ORIENTED_EDGE('',*,*,#241,.F.);
#317=ORIENTED_EDGE('',*,*,#249,.F.);
#318=ORIENTED_EDGE('',*,*,#242,.F.);
#319=ORIENTED_EDGE('',*,*,#233,.F.);
#320=ORIENTED_EDGE('',*,*,#250,.F.);
#321=ORIENTED_EDGE('',*,*,#251,.F.);
#322=ORIENTED_EDGE('',*,*,#229,.F.);
#323=ORIENTED_EDGE('',*,*,#247,.F.);
#324=ORIENTED_EDGE('',*,*,#227,.T.);
#325=ORIENTED_EDGE('',*,*,#252,.T.);
#326=ORIENTED_EDGE('',*,*,#253,.T.);
#327=ORIENTED_EDGE('',*,*,#254,.T.);
#328=ORIENTED_EDGE('',*,*,#255,.T.);
#329=ORIENTED_EDGE('',*,*,#231,.T.);
#330=ORIENTED_EDGE('',*,*,#244,.T.);
#331=ORIENTED_EDGE('',*,*,#256,.T.);
#332=ORIENTED_EDGE('',*,*,#257,.F.);
#333=ORIENTED_EDGE('',*,*,#258,.T.);
#334=ORIENTED_EDGE('',*,*,#259,.F.);
#335=ORIENTED_EDGE('',*,*,#260,.T.);
#336=ORIENTED_EDGE('',*,*,#261,.F.);
#337=ORIENTED_EDGE('',*,*,#262,.T.);
#338=ORIENTED_EDGE('',*,*,#245,.T.);
#339=ORIENTED_EDGE('',*,*,#239,.T.);
#340=ORIENTED_EDGE('',*,*,#235,.T.);
#341=ORIENTED_EDGE('',*,*,#263,.T.);
#342=ORIENTED_EDGE('',*,*,#264,.F.);
#343=ORIENTED_EDGE('',*,*,#265,.T.);
#344=ORIENTED_EDGE('',*,*,#238,.T.);
#345=ORIENTED_EDGE('',*,*,#248,.T.);
#346=ORIENTED_EDGE('',*,*,#246,.T.);
#347=ORIENTED_EDGE('',*,*,#262,.F.);
#348=ORIENTED_EDGE('',*,*,#266,.F.);
#349=ORIENTED_EDGE('',*,*,#267,.T.);
#350=ORIENTED_EDGE('',*,*,#268,.F.);
#351=ORIENTED_EDGE('',*,*,#263,.F.);
#352=ORIENTED_EDGE('',*,*,#261,.T.);
#353=ORIENTED_EDGE('',*,*,#269,.T.);
#354=ORIENTED_EDGE('',*,*,#270,.T.);
#355=ORIENTED_EDGE('',*,*,#266,.T.);
#356=ORIENTED_EDGE('',*,*,#270,.F.);
#357=ORIENTED_EDGE('',*,*,#271,.F.);
#358=ORIENTED_EDGE('',*,*,#272,.F.);
#359=ORIENTED_EDGE('',*,*,#273,.F.);
#360=ORIENTED_EDGE('',*,*,#274,.F.);
#361=ORIENTED_EDGE('',*,*,#275,.F.);
#362=ORIENTED_EDGE('',*,*,#276,.F.);
#363=ORIENTED_EDGE('',*,*,#267,.F.);
#364=ORIENTED_EDGE('',*,*,#259,.T.);
#365=ORIENTED_EDGE('',*,*,#277,.T.);
#366=ORIENTED_EDGE('',*,*,#272,.T.);
#367=ORIENTED_EDGE('',*,*,#278,.T.);
#368=ORIENTED_EDGE('',*,*,#277,.F.);
#369=ORIENTED_EDGE('',*,*,#258,.F.);
#370=ORIENTED_EDGE('',*,*,#279,.F.);
#371=ORIENTED_EDGE('',*,*,#273,.T.);
#372=ORIENTED_EDGE('',*,*,#257,.T.);
#373=ORIENTED_EDGE('',*,*,#280,.T.);
#374=ORIENTED_EDGE('',*,*,#274,.T.);
#375=ORIENTED_EDGE('',*,*,#279,.T.);
#376=ORIENTED_EDGE('',*,*,#264,.T.);
#377=ORIENTED_EDGE('',*,*,#268,.T.);
#378=ORIENTED_EDGE('',*,*,#276,.T.);
#379=ORIENTED_EDGE('',*,*,#281,.T.);
#380=ORIENTED_EDGE('',*,*,#253,.F.);
#381=ORIENTED_EDGE('',*,*,#282,.T.);
#382=ORIENTED_EDGE('',*,*,#283,.F.);
#383=ORIENTED_EDGE('',*,*,#284,.F.);
#384=ORIENTED_EDGE('',*,*,#254,.F.);
#385=ORIENTED_EDGE('',*,*,#284,.T.);
#386=ORIENTED_EDGE('',*,*,#285,.F.);
#387=ORIENTED_EDGE('',*,*,#286,.F.);
#388=ORIENTED_EDGE('',*,*,#255,.F.);
#389=ORIENTED_EDGE('',*,*,#286,.T.);
#390=ORIENTED_EDGE('',*,*,#287,.F.);
#391=ORIENTED_EDGE('',*,*,#288,.T.);
#392=ORIENTED_EDGE('',*,*,#250,.T.);
#393=ORIENTED_EDGE('',*,*,#232,.F.);
#394=ORIENTED_EDGE('',*,*,#288,.F.);
#395=ORIENTED_EDGE('',*,*,#289,.F.);
#396=ORIENTED_EDGE('',*,*,#282,.F.);
#397=ORIENTED_EDGE('',*,*,#252,.F.);
#398=ORIENTED_EDGE('',*,*,#230,.T.);
#399=ORIENTED_EDGE('',*,*,#251,.T.);
#400=ORIENTED_EDGE('',*,*,#289,.T.);
#401=ORIENTED_EDGE('',*,*,#287,.T.);
#402=ORIENTED_EDGE('',*,*,#285,.T.);
#403=ORIENTED_EDGE('',*,*,#283,.T.);
#404=ORIENTED_EDGE('',*,*,#269,.F.);
#405=ORIENTED_EDGE('',*,*,#260,.F.);
#406=ORIENTED_EDGE('',*,*,#278,.F.);
#407=ORIENTED_EDGE('',*,*,#271,.T.);
#408=ORIENTED_EDGE('',*,*,#240,.T.);
#409=ORIENTED_EDGE('',*,*,#265,.F.);
#410=ORIENTED_EDGE('',*,*,#281,.F.);
#411=ORIENTED_EDGE('',*,*,#275,.T.);
#412=ORIENTED_EDGE('',*,*,#280,.F.);
#413=ORIENTED_EDGE('',*,*,#256,.F.);
#414=ORIENTED_EDGE('',*,*,#243,.T.);
#415=ORIENTED_EDGE('',*,*,#249,.T.);
#416=PLANE('',#472);
#417=PLANE('',#473);
#418=PLANE('',#474);
#419=PLANE('',#475);
#420=PLANE('',#476);
#421=PLANE('',#477);
#422=PLANE('',#478);
#423=PLANE('',#479);
#424=PLANE('',#483);
#425=PLANE('',#485);
#426=PLANE('',#488);
#427=PLANE('',#493);
#428=PLANE('',#496);
#429=PLANE('',#497);
#430=PLANE('',#498);
#431=PLANE('',#499);
#432=PLANE('',#500);
#433=PLANE('',#501);
#434=PLANE('',#502);
#435=ADVANCED_FACE('',(#29),#416,.F.);
#436=ADVANCED_FACE('',(#30),#417,.F.);
#437=ADVANCED_FACE('',(#31),#418,.F.);
#438=ADVANCED_FACE('',(#32),#419,.F.);
#439=ADVANCED_FACE('',(#33),#420,.F.);
#440=ADVANCED_FACE('',(#34),#421,.F.);
#441=ADVANCED_FACE('',(#35),#422,.F.);
#442=ADVANCED_FACE('',(#36),#423,.T.);
#443=ADVANCED_FACE('',(#37),#424,.T.);
#444=ADVANCED_FACE('',(#38),#425,.T.);
#445=ADVANCED_FACE('',(#39),#14,.T.);
#446=ADVANCED_FACE('',(#40),#426,.F.);
#447=ADVANCED_FACE('',(#41),#15,.T.);
#448=ADVANCED_FACE('',(#42),#427,.T.);
#449=ADVANCED_FACE('',(#43),#16,.T.);
#450=ADVANCED_FACE('',(#44),#17,.T.);
#451=ADVANCED_FACE('',(#45),#428,.T.);
#452=ADVANCED_FACE('',(#46),#429,.T.);
#453=ADVANCED_FACE('',(#47),#430,.T.);
#454=ADVANCED_FACE('',(#48),#431,.T.);
#455=ADVANCED_FACE('',(#49),#432,.T.);
#456=ADVANCED_FACE('',(#50),#433,.T.);
#457=ADVANCED_FACE('',(#51),#434,.T.);
#458=CLOSED_SHELL('',(#435,#436,#437,#438,#439,#440,#441,#442,#443,#444,
#445,#446,#447,#448,#449,#450,#451,#452,#453,#454,#455,#456,#457));
#459=DERIVED_UNIT_ELEMENT(#461,1.);
#460=DERIVED_UNIT_ELEMENT(#756,-3.);
#461=(
MASS_UNIT()
NAMED_UNIT(*)
SI_UNIT(.KILO.,.GRAM.)
);
#462=DERIVED_UNIT((#459,#460));
#463=MEASURE_REPRESENTATION_ITEM('density measure',
POSITIVE_RATIO_MEASURE(7850.),#462);
#464=PROPERTY_DEFINITION_REPRESENTATION(#469,#466);
#465=PROPERTY_DEFINITION_REPRESENTATION(#470,#467);
#466=REPRESENTATION('material name',(#468),#753);
#467=REPRESENTATION('density',(#463),#753);
#468=DESCRIPTIVE_REPRESENTATION_ITEM('Steel','Steel');
#469=PROPERTY_DEFINITION('material property','material name',#763);
#470=PROPERTY_DEFINITION('material property','density of part',#763);
#471=AXIS2_PLACEMENT_3D('',#622,#503,#504);
#472=AXIS2_PLACEMENT_3D('',#623,#505,#506);
#473=AXIS2_PLACEMENT_3D('',#632,#511,#512);
#474=AXIS2_PLACEMENT_3D('',#641,#517,#518);
#475=AXIS2_PLACEMENT_3D('',#650,#523,#524);
#476=AXIS2_PLACEMENT_3D('',#656,#528,#529);
#477=AXIS2_PLACEMENT_3D('',#662,#533,#534);
#478=AXIS2_PLACEMENT_3D('',#668,#538,#539);
#479=AXIS2_PLACEMENT_3D('',#674,#544,#545);
#480=AXIS2_PLACEMENT_3D('',#685,#551,#552);
#481=AXIS2_PLACEMENT_3D('',#689,#554,#555);
#482=AXIS2_PLACEMENT_3D('',#693,#557,#558);
#483=AXIS2_PLACEMENT_3D('',#695,#560,#561);
#484=AXIS2_PLACEMENT_3D('',#699,#563,#564);
#485=AXIS2_PLACEMENT_3D('',#701,#566,#567);
#486=AXIS2_PLACEMENT_3D('',#707,#571,#572);
#487=AXIS2_PLACEMENT_3D('',#710,#574,#575);
#488=AXIS2_PLACEMENT_3D('',#711,#576,#577);
#489=AXIS2_PLACEMENT_3D('',#715,#579,#580);
#490=AXIS2_PLACEMENT_3D('',#719,#582,#583);
#491=AXIS2_PLACEMENT_3D('',#722,#585,#586);
#492=AXIS2_PLACEMENT_3D('',#723,#587,#588);
#493=AXIS2_PLACEMENT_3D('',#726,#591,#592);
#494=AXIS2_PLACEMENT_3D('',#728,#594,#595);
#495=AXIS2_PLACEMENT_3D('',#730,#597,#598);
#496=AXIS2_PLACEMENT_3D('',#732,#600,#601);
#497=AXIS2_PLACEMENT_3D('',#738,#605,#606);
#498=AXIS2_PLACEMENT_3D('',#742,#609,#610);
#499=AXIS2_PLACEMENT_3D('',#746,#613,#614);
#500=AXIS2_PLACEMENT_3D('',#748,#616,#617);
#501=AXIS2_PLACEMENT_3D('',#749,#618,#619);
#502=AXIS2_PLACEMENT_3D('',#750,#620,#621);
#503=DIRECTION('axis',(0.,0.,1.));
#504=DIRECTION('refdir',(1.,0.,0.));
#505=DIRECTION('center_axis',(-0.707106781186548,0.,-0.707106781186548));
#506=DIRECTION('ref_axis',(0.707106781186548,0.,-0.707106781186548));
#507=DIRECTION('',(0.707106781186548,0.,-0.707106781186548));
#508=DIRECTION('',(0.,1.,0.));
#509=DIRECTION('',(0.707106781186547,0.,-0.707106781186547));
#510=DIRECTION('',(0.,-1.,0.));
#511=DIRECTION('center_axis',(0.707106781186548,0.,0.707106781186548));
#512=DIRECTION('ref_axis',(-0.707106781186548,0.,0.707106781186548));
#513=DIRECTION('',(-0.707106781186548,0.,0.707106781186548));
#514=DIRECTION('',(0.,-1.,0.));
#515=DIRECTION('',(-0.707106781186547,0.,0.707106781186547));
#516=DIRECTION('',(0.,-1.,0.));
#517=DIRECTION('center_axis',(0.,0.,1.));
#518=DIRECTION('ref_axis',(-1.,0.,0.));
#519=DIRECTION('',(-1.,0.,0.));
#520=DIRECTION('',(0.,-1.,0.));
#521=DIRECTION('',(-1.,0.,0.));
#522=DIRECTION('',(0.,-1.,0.));
#523=DIRECTION('center_axis',(-1.,0.,0.));
#524=DIRECTION('ref_axis',(0.,0.,-1.));
#525=DIRECTION('',(0.,0.,-1.));
#526=DIRECTION('',(0.,1.,0.));
#527=DIRECTION('',(0.,0.,-1.));
#528=DIRECTION('center_axis',(1.,0.,0.));
#529=DIRECTION('ref_axis',(0.,0.,1.));
#530=DIRECTION('',(0.,0.,1.));
#531=DIRECTION('',(0.,-1.,0.));
#532=DIRECTION('',(0.,0.,1.));
#533=DIRECTION('center_axis',(0.,0.,-1.));
#534=DIRECTION('ref_axis',(1.,0.,0.));
#535=DIRECTION('',(1.,0.,0.));
#536=DIRECTION('',(0.,1.,0.));
#537=DIRECTION('',(1.,0.,0.));
#538=DIRECTION('center_axis',(0.,-1.,0.));
#539=DIRECTION('ref_axis',(0.,0.,-1.));
#540=DIRECTION('',(0.,0.,-1.));
#541=DIRECTION('',(-1.,0.,0.));
#542=DIRECTION('',(1.,0.,0.));
#543=DIRECTION('',(0.,0.,1.));
#544=DIRECTION('center_axis',(0.,1.,0.));
#545=DIRECTION('ref_axis',(0.,0.,1.));
#546=DIRECTION('',(0.,0.,-1.));
#547=DIRECTION('',(1.,0.,0.));
#548=DIRECTION('',(0.,0.,1.));
#549=DIRECTION('',(-1.,0.,0.));
#550=DIRECTION('',(1.,0.,0.));
#551=DIRECTION('center_axis',(0.,-1.,0.));
#552=DIRECTION('ref_axis',(0.707106781186546,0.,0.707106781186549));
#553=DIRECTION('',(0.,0.,-1.));
#554=DIRECTION('center_axis',(0.,-1.,0.));
#555=DIRECTION('ref_axis',(0.707106781186544,0.,-0.707106781186551));
#556=DIRECTION('',(-1.,0.,0.));
#557=DIRECTION('center_axis',(0.,-1.,0.));
#558=DIRECTION('ref_axis',(-0.707106781186549,0.,-0.707106781186546));
#559=DIRECTION('',(0.,0.,1.));
#560=DIRECTION('center_axis',(0.,1.,0.));
#561=DIRECTION('ref_axis',(0.,0.,1.));
#562=DIRECTION('',(0.,0.,1.));
#563=DIRECTION('center_axis',(0.,-1.,0.));
#564=DIRECTION('ref_axis',(-0.707106781186547,0.,0.707106781186548));
#565=DIRECTION('',(1.,0.,0.));
#566=DIRECTION('center_axis',(-1.,0.,0.));
#567=DIRECTION('ref_axis',(0.,0.,1.));
#568=DIRECTION('',(0.,1.,0.));
#569=DIRECTION('',(0.,0.,1.));
#570=DIRECTION('',(0.,-1.,0.));
#571=DIRECTION('center_axis',(0.,1.,0.));
#572=DIRECTION('ref_axis',(-0.707106781186549,0.,-0.707106781186546));
#573=DIRECTION('',(0.,-1.,0.));
#574=DIRECTION('center_axis',(0.,1.,0.));
#575=DIRECTION('ref_axis',(-0.707106781186549,0.,-0.707106781186546));
#576=DIRECTION('center_axis',(0.,1.,0.));
#577=DIRECTION('ref_axis',(1.,0.,0.));
#578=DIRECTION('',(-1.,0.,0.));
#579=DIRECTION('center_axis',(0.,1.,0.));
#580=DIRECTION('ref_axis',(0.707106781186544,0.,-0.707106781186551));
#581=DIRECTION('',(0.,0.,-1.));
#582=DIRECTION('center_axis',(0.,1.,0.));
#583=DIRECTION('ref_axis',(0.707106781186546,0.,0.707106781186549));
#584=DIRECTION('',(1.,0.,0.));
#585=DIRECTION('center_axis',(0.,1.,0.));
#586=DIRECTION('ref_axis',(-0.707106781186547,0.,0.707106781186548));
#587=DIRECTION('center_axis',(0.,1.,0.));
#588=DIRECTION('ref_axis',(0.707106781186544,0.,-0.707106781186551));
#589=DIRECTION('',(0.,-1.,0.));
#590=DIRECTION('',(0.,1.,0.));
#591=DIRECTION('center_axis',(1.,0.,0.));
#592=DIRECTION('ref_axis',(0.,0.,-1.));
#593=DIRECTION('',(0.,1.,0.));
#594=DIRECTION('center_axis',(0.,1.,0.));
#595=DIRECTION('ref_axis',(0.707106781186546,0.,0.707106781186549));
#596=DIRECTION('',(0.,-1.,0.));
#597=DIRECTION('center_axis',(0.,1.,0.));
#598=DIRECTION('ref_axis',(-0.707106781186547,0.,0.707106781186548));
#599=DIRECTION('',(0.,1.,0.));
#600=DIRECTION('center_axis',(0.,0.,-1.));
#601=DIRECTION('ref_axis',(-1.,0.,0.));
#602=DIRECTION('',(0.,1.,0.));
#603=DIRECTION('',(-1.,0.,0.));
#604=DIRECTION('',(0.,1.,0.));
#605=DIRECTION('center_axis',(1.,0.,0.));
#606=DIRECTION('ref_axis',(0.,0.,-1.));
#607=DIRECTION('',(0.,0.,-1.));
#608=DIRECTION('',(0.,1.,0.));
#609=DIRECTION('center_axis',(0.,0.,1.));
#610=DIRECTION('ref_axis',(1.,0.,0.));
#611=DIRECTION('',(1.,0.,0.));
#612=DIRECTION('',(0.,-1.,0.));
#613=DIRECTION('center_axis',(-1.,0.,0.));
#614=DIRECTION('ref_axis',(0.,0.,1.));
#615=DIRECTION('',(0.,0.,1.));
#616=DIRECTION('center_axis',(0.,1.,0.));
#617=DIRECTION('ref_axis',(0.,0.,1.));
#618=DIRECTION('center_axis',(0.,0.,-1.));
#619=DIRECTION('ref_axis',(-1.,0.,0.));
#620=DIRECTION('center_axis',(0.,0.,1.));
#621=DIRECTION('ref_axis',(1.,0.,0.));
#622=CARTESIAN_POINT('',(0.,0.,0.));
#623=CARTESIAN_POINT('Origin',(3.00000004470348,3.,-3.50000005215406));
#624=CARTESIAN_POINT('',(3.00000004470348,3.,-3.50000005215406));
#625=CARTESIAN_POINT('',(5.00000007450581,3.,-5.50000008195639));
#626=CARTESIAN_POINT('',(8.1060000204891,3.,-8.60600002793968));
#627=CARTESIAN_POINT('',(3.00000004470348,2.8,-3.50000005215406));
#628=CARTESIAN_POINT('',(3.0000000372529,3.,-3.50000004470348));
#629=CARTESIAN_POINT('',(5.00000007450581,2.8,-5.50000008195639));
#630=CARTESIAN_POINT('',(5.31874746748789,2.8,-5.81874747493847));
#631=CARTESIAN_POINT('',(5.00000007450581,3.,-5.50000008195639));
#632=CARTESIAN_POINT('Origin',(5.50000008195639,3.,-5.00000007450581));
#633=CARTESIAN_POINT('',(5.50000008195639,3.,-5.00000007450581));
#634=CARTESIAN_POINT('',(3.50000005215406,3.,-3.00000004470348));
#635=CARTESIAN_POINT('',(9.60600004284084,3.,-9.10600003539026));
#636=CARTESIAN_POINT('',(5.50000008195639,2.8,-5.00000007450581));
#637=CARTESIAN_POINT('',(5.50000008195639,3.,-5.00000007450581));
#638=CARTESIAN_POINT('',(3.50000005215406,2.8,-3.00000004470348));
#639=CARTESIAN_POINT('',(3.50000005215406,2.8,-3.00000004470348));
#640=CARTESIAN_POINT('',(3.50000004470348,3.,-3.0000000372529));
#641=CARTESIAN_POINT('Origin',(3.00000004470348,3.,-3.00000004470348));
#642=CARTESIAN_POINT('',(3.00000004470348,3.,-3.00000004470348));
#643=CARTESIAN_POINT('',(0.,3.,-3.00000004470348));
#644=CARTESIAN_POINT('',(8.23100002235174,3.,-3.00000004470348));
#645=CARTESIAN_POINT('',(3.00000004470348,2.8,-3.00000004470348));
#646=CARTESIAN_POINT('',(3.00000004470348,3.,-3.00000004470348));
#647=CARTESIAN_POINT('',(0.,2.8,-3.00000004470348));
#648=CARTESIAN_POINT('',(0.,2.8,-3.00000004470348));
#649=CARTESIAN_POINT('',(0.,1.5,-3.00000004470348));
#650=CARTESIAN_POINT('Origin',(3.00000004470348,3.,0.));
#651=CARTESIAN_POINT('',(3.00000004470348,3.,0.));
#652=CARTESIAN_POINT('',(3.00000004470348,3.,-6.731));
#653=CARTESIAN_POINT('',(3.00000004470348,2.8,0.));
#654=CARTESIAN_POINT('',(3.00000004470348,1.5,0.));
#655=CARTESIAN_POINT('',(3.00000004470348,2.8,-3.));
#656=CARTESIAN_POINT('Origin',(3.50000004470348,3.,-3.5));
#657=CARTESIAN_POINT('',(3.50000004470348,2.8,0.));
#658=CARTESIAN_POINT('',(3.50000004470348,2.8,0.));
#659=CARTESIAN_POINT('',(3.50000004470348,3.,0.));
#660=CARTESIAN_POINT('',(3.50000004470348,1.5,0.));
#661=CARTESIAN_POINT('',(3.50000004470348,3.,-8.481));
#662=CARTESIAN_POINT('Origin',(0.,3.,-3.50000004470348));
#663=CARTESIAN_POINT('',(0.,3.,-3.50000004470348));
#664=CARTESIAN_POINT('',(6.731,3.,-3.50000004470348));
#665=CARTESIAN_POINT('',(0.,2.8,-3.50000004470348));
#666=CARTESIAN_POINT('',(0.,1.5,-3.50000004470348));
#667=CARTESIAN_POINT('',(3.5,2.8,-3.50000004470348));
#668=CARTESIAN_POINT('Origin',(1.75000002235174,2.8,-1.75000002235174));
#669=CARTESIAN_POINT('',(0.,2.8,-14.3370000111759));
#670=CARTESIAN_POINT('',(0.875000011175871,2.8,0.));
#671=CARTESIAN_POINT('',(5.00000007450581,2.8,-5.00000007450581));
#672=CARTESIAN_POINT('',(22.0000003278255,2.8,-5.00000007450581));
#673=CARTESIAN_POINT('',(5.00000007450581,2.8,-5.00000007450581));
#674=CARTESIAN_POINT('Origin',(13.462,3.,-13.462));
#675=CARTESIAN_POINT('',(5.00000007450581,3.,-22.0000003278255));
#676=CARTESIAN_POINT('',(5.00000007450581,3.,-17.7310001639128));
#677=CARTESIAN_POINT('',(22.0000003278255,3.,-22.0000003278255));
#678=CARTESIAN_POINT('',(17.7310001639128,3.,-22.0000003278255));
#679=CARTESIAN_POINT('',(22.0000003278255,3.,-5.00000007450581));
#680=CARTESIAN_POINT('',(22.0000003278255,3.,-9.2310000372529));
#681=CARTESIAN_POINT('',(9.2310000372529,3.,-5.00000007450581));
#682=CARTESIAN_POINT('',(25.924,3.,0.));
#683=CARTESIAN_POINT('',(0.,3.,0.));
#684=CARTESIAN_POINT('',(26.924,3.,-1.));
#685=CARTESIAN_POINT('Origin',(25.924,3.,-1.));
#686=CARTESIAN_POINT('',(26.924,3.,-25.924));
#687=CARTESIAN_POINT('',(26.924,3.,0.));
#688=CARTESIAN_POINT('',(25.924,3.,-26.924));
#689=CARTESIAN_POINT('Origin',(25.924,3.,-25.924));
#690=CARTESIAN_POINT('',(1.,3.,-26.924));
#691=CARTESIAN_POINT('',(26.924,3.,-26.924));
#692=CARTESIAN_POINT('',(0.,3.,-25.924));
#693=CARTESIAN_POINT('Origin',(1.,3.,-25.924));
#694=CARTESIAN_POINT('',(0.,3.,-26.924));
#695=CARTESIAN_POINT('Origin',(13.462,3.,-13.462));
#696=CARTESIAN_POINT('',(0.,3.,-1.));
#697=CARTESIAN_POINT('',(0.,3.,-26.924));
#698=CARTESIAN_POINT('',(1.,3.,0.));
#699=CARTESIAN_POINT('Origin',(1.,3.,-1.));
#700=CARTESIAN_POINT('',(0.,3.,0.));
#701=CARTESIAN_POINT('Origin',(0.,0.,-26.924));
#702=CARTESIAN_POINT('',(0.,0.,-25.924));
#703=CARTESIAN_POINT('',(0.,0.,-25.924));
#704=CARTESIAN_POINT('',(0.,0.,-1.));
#705=CARTESIAN_POINT('',(0.,0.,-26.924));
#706=CARTESIAN_POINT('',(0.,0.,-1.));
#707=CARTESIAN_POINT('Origin',(1.,0.,-25.924));
#708=CARTESIAN_POINT('',(1.,0.,-26.924));
#709=CARTESIAN_POINT('',(1.,0.,-26.924));
#710=CARTESIAN_POINT('Origin',(1.,0.,-25.924));
#711=CARTESIAN_POINT('Origin',(13.462,0.,-13.462));
#712=CARTESIAN_POINT('',(25.924,0.,-26.924));
#713=CARTESIAN_POINT('',(26.924,0.,-26.924));
#714=CARTESIAN_POINT('',(26.924,0.,-25.924));
#715=CARTESIAN_POINT('Origin',(25.924,0.,-25.924));
#716=CARTESIAN_POINT('',(26.924,0.,-1.));
#717=CARTESIAN_POINT('',(26.924,0.,0.));
#718=CARTESIAN_POINT('',(25.924,0.,0.));
#719=CARTESIAN_POINT('Origin',(25.924,0.,-1.));
#720=CARTESIAN_POINT('',(1.,0.,0.));
#721=CARTESIAN_POINT('',(0.,0.,0.));
#722=CARTESIAN_POINT('Origin',(1.,0.,-1.));
#723=CARTESIAN_POINT('Origin',(25.924,0.,-25.924));
#724=CARTESIAN_POINT('',(26.924,0.,-25.924));
#725=CARTESIAN_POINT('',(25.924,0.,-26.924));
#726=CARTESIAN_POINT('Origin',(26.924,0.,0.));
#727=CARTESIAN_POINT('',(26.924,0.,-1.));
#728=CARTESIAN_POINT('Origin',(25.924,0.,-1.));
#729=CARTESIAN_POINT('',(25.924,0.,0.));
#730=CARTESIAN_POINT('Origin',(1.,0.,-1.));
#731=CARTESIAN_POINT('',(1.,0.,0.));
#732=CARTESIAN_POINT('Origin',(22.0000003278255,3.,-22.0000003278255));
#733=CARTESIAN_POINT('',(5.00000007450581,3.5,-22.0000003278255));
#734=CARTESIAN_POINT('',(5.00000007450581,3.,-22.0000003278255));
#735=CARTESIAN_POINT('',(22.0000003278255,3.5,-22.0000003278255));
#736=CARTESIAN_POINT('',(22.0000003278255,3.5,-22.0000003278255));
#737=CARTESIAN_POINT('',(22.0000003278255,3.,-22.0000003278255));
#738=CARTESIAN_POINT('Origin',(22.0000003278255,3.,-5.00000007450581));
#739=CARTESIAN_POINT('',(22.0000003278255,3.5,-5.00000007450581));
#740=CARTESIAN_POINT('',(22.0000003278255,3.5,-5.00000007450581));
#741=CARTESIAN_POINT('',(22.0000003278255,3.,-5.00000007450581));
#742=CARTESIAN_POINT('Origin',(5.00000007450581,3.,-5.00000007450581));
#743=CARTESIAN_POINT('',(5.00000007450581,3.5,-5.00000007450581));
#744=CARTESIAN_POINT('',(5.00000007450581,3.5,-5.00000007450581));
#745=CARTESIAN_POINT('',(5.00000007450581,3.,-5.00000007450581));
#746=CARTESIAN_POINT('Origin',(5.00000007450581,3.,-22.0000003278255));
#747=CARTESIAN_POINT('',(5.00000007450581,3.5,-22.0000003278255));
#748=CARTESIAN_POINT('Origin',(13.5000002011657,3.5,-13.5000002011657));
#749=CARTESIAN_POINT('Origin',(26.924,0.,-26.924));
#750=CARTESIAN_POINT('Origin',(0.,0.,0.));
#751=UNCERTAINTY_MEASURE_WITH_UNIT(LENGTH_MEASURE(0.01),#755,
'DISTANCE_ACCURACY_VALUE',
'Maximum model space distance between geometric entities at asserted c
onnectivities');
#752=UNCERTAINTY_MEASURE_WITH_UNIT(LENGTH_MEASURE(0.01),#755,
'DISTANCE_ACCURACY_VALUE',
'Maximum model space distance between geometric entities at asserted c
onnectivities');
#753=(
GEOMETRIC_REPRESENTATION_CONTEXT(3)
GLOBAL_UNCERTAINTY_ASSIGNED_CONTEXT((#751))
GLOBAL_UNIT_ASSIGNED_CONTEXT((#755,#757,#758))
REPRESENTATION_CONTEXT('','3D')
);
#754=(
GEOMETRIC_REPRESENTATION_CONTEXT(3)
GLOBAL_UNCERTAINTY_ASSIGNED_CONTEXT((#752))
GLOBAL_UNIT_ASSIGNED_CONTEXT((#755,#757,#758))
REPRESENTATION_CONTEXT('','3D')
);
#755=(
LENGTH_UNIT()
NAMED_UNIT(*)
SI_UNIT(.MILLI.,.METRE.)
);
#756=(
LENGTH_UNIT()
NAMED_UNIT(*)
SI_UNIT($,.METRE.)
);
#757=(
NAMED_UNIT(*)
PLANE_ANGLE_UNIT()
SI_UNIT($,.RADIAN.)
);
#758=(
NAMED_UNIT(*)
SI_UNIT($,.STERADIAN.)
SOLID_ANGLE_UNIT()
);
#759=SHAPE_DEFINITION_REPRESENTATION(#760,#761);
#760=PRODUCT_DEFINITION_SHAPE('',$,#763);
#761=SHAPE_REPRESENTATION('',(#471),#753);
#762=PRODUCT_DEFINITION_CONTEXT('part definition',#767,'design');
#763=PRODUCT_DEFINITION('PGA84','PGA84 v2',#764,#762);
#764=PRODUCT_DEFINITION_FORMATION('',$,#769);
#765=PRODUCT_RELATED_PRODUCT_CATEGORY('PGA84 v2','PGA84 v2',(#769));
#766=APPLICATION_PROTOCOL_DEFINITION('international standard',
'automotive_design',2009,#767);
#767=APPLICATION_CONTEXT(
'Core Data for Automotive Mechanical Design Process');
#768=PRODUCT_CONTEXT('part definition',#767,'mechanical');
#769=PRODUCT('PGA84','PGA84 v2',$,(#768));
#770=PRESENTATION_STYLE_ASSIGNMENT((#772));
#771=PRESENTATION_STYLE_ASSIGNMENT((#773));
#772=SURFACE_STYLE_USAGE(.BOTH.,#774);
#773=SURFACE_STYLE_USAGE(.BOTH.,#775);
#774=SURFACE_SIDE_STYLE('',(#776));
#775=SURFACE_SIDE_STYLE('',(#777));
#776=SURFACE_STYLE_FILL_AREA(#778);
#777=SURFACE_STYLE_FILL_AREA(#779);
#778=FILL_AREA_STYLE('Steel - Satin',(#780));
#779=FILL_AREA_STYLE('Brass - Matte',(#781));
#780=FILL_AREA_STYLE_COLOUR('Steel - Satin',#782);
#781=FILL_AREA_STYLE_COLOUR('Brass - Matte',#783);
#782=COLOUR_RGB('Steel - Satin',0.627450980392157,0.627450980392157,0.627450980392157);
#783=COLOUR_RGB('Brass - Matte',0.952941176470588,0.796078431372549,0.486274509803922);
ENDSEC;
END-ISO-10303-21;
